<!-- icon666.com - MILLIONS vector ICONS FREE --><svg id="Layer_1" enable-background="new 0 0 64 64" viewBox="0 0 64 64" xmlns="http://www.w3.org/2000/svg"><path d="m58 2.2-21.2 3.3c-1.6.3-2.8 1.7-2.8 3.4v11.8c.7.4 1.4.8 2 1.2v-6.2l24-3.7v16c-1.3-1.3-3-2.1-5-2.1-3.9 0-7 3.1-7 7s3.1 7 7 7 7-3.1 7-7v-27.2c0-1-.6-3.7-4-3.5zm-1 31.7c-.5 0-1-.5-1-1s-.5-1-1-1-1-.5-1-1 .5-1 1-1c1.7 0 3 1.3 3 3 0 .5-.5 1-1 1z"></path><path d="m36 24.4v12.5c-.3 6.8-7 7.6-8.8 6.8 0 0-1.2 2.3-4.2 2.2-2.8 0-5-2.2-5-5 0-2.4 1.8-4.5 4.1-4.9.5-3.4 3.4-6.1 6.9-6.1 2 0 3.7.8 5 2.1v-9c-3.2-2-7-3.1-11-3.1-11.6 0-21 9.4-21 21s9.4 21 21 21 21-9.4 21-21c0-6.7-3.1-12.7-8-16.5zm-31 17.5c-.5 0-1-.5-1-1 0-10.5 8.5-19 19-19 .5 0 1 .5 1 1s-.5 1-1 1c-9.4 0-17 7.6-17 17 0 .5-.5 1-1 1zm5-1c0 .5-.5 1-1 1s-1-.5-1-1c0-.7 0-1.4.1-2.1.1-.5.6-.9 1.1-.8s.9.6.9 1.1c-.1.5-.1 1.1-.1 1.8zm1.2-5.6c-.2.4-.6.9-1.3.5-.5-.2-.7-.8-.5-1.3 2.4-5.2 7.8-8.6 13.6-8.6.5 0 1 .5 1 1s-.5 1-1 1c-5 0-9.7 2.9-11.8 7.4zm29.8 6.6c.5.1 1 .5.9 1.1-1.1 9.6-9.2 16.9-18.9 16.9-.5 0-1-.5-1-1s.5-1 1-1c8.7 0 16-6.5 16.9-15.1.1-.6.6-1 1.1-.9z"></path><path d="m20.6 42.6c.5.7 2.6 2.2 4.7.1-1.7-1-2.9-2.8-3.2-4.8-3.2 1.6-1.9 4.2-1.5 4.7z"></path><path d="m29 41.9c2.8 0 5-2.2 5-5s-2.2-5-5-5-5 2.2-5 5 2.2 5 5 5zm0-8c1.7 0 3 1.3 3 3 0 .5-.5 1-1 1s-1-.5-1-1-.5-1-1-1-1-.5-1-1 .5-1 1-1z"></path></svg>