<!-- icon666.com - MILLIONS vector ICONS FREE --><svg version="1.1" id="Capa_1" xmlns="http://www.w3.org/2000/svg" xmlns:xlink="http://www.w3.org/1999/xlink" x="0px" y="0px" viewBox="0 0 612 612" style="enable-background:new 0 0 612 612;" xml:space="preserve"><g><g><g id="group-35svg"><path id="path-1_29_" d="M568.286,519.714c0,50.972-41.326,92.286-92.287,92.286H136c-50.971,0-92.286-41.314-92.286-92.286 V92.286C43.714,41.315,85.029,0,136,0h340c50.961,0,92.287,41.315,92.287,92.286V519.714z M539.142,92.286 c0-34.874-28.268-63.143-63.143-63.143H136c-34.875,0-63.143,28.269-63.143,63.143v427.428c0,34.875,28.269,63.144,63.143,63.144 h340c34.875,0,63.143-28.269,63.143-63.144V92.286z"></path><path id="path-2_29_" d="M155.428,519.714c-8.043,0-14.572-6.527-14.572-14.571V184.571c0-8.043,6.528-14.571,14.572-14.571 S170,176.528,170,184.571v320.571C170,513.187,163.472,519.714,155.428,519.714z"></path><path id="path-3_28_" d="M252.571,519.714c-8.043,0-14.571-6.527-14.571-14.571V398.286c0-8.044,6.528-14.572,14.571-14.572 s14.572,6.528,14.572,14.572v106.856C267.143,513.187,260.614,519.714,252.571,519.714z"></path><path id="path-4_18_" d="M349.714,519.714c-8.043,0-14.572-6.527-14.572-14.571V291.429c0-8.043,6.529-14.572,14.572-14.572 s14.572,6.528,14.572,14.572v213.714C364.286,513.187,357.757,519.714,349.714,519.714z"></path><path id="path-5_8_" d="M446.856,519.714c-8.043,0-14.57-6.527-14.57-14.571v-408c0-8.043,6.527-14.572,14.57-14.572 s14.572,6.528,14.572,14.572v408C461.429,513.187,454.899,519.714,446.856,519.714z"></path></g></g></g></svg>